#!OML:ASF F:\VICON\USERDATA\INSTALL\rory3\rory3.ASF
:FULLY-SPECIFIED
:DEGREES
35
root -0.4499067199539075 18.51082586543973 8.607933120652817 -0.8266855016041128 0.5826428182185766 -5.589977140852071
lfemur -26.964306282868797 6.097302390794216 -13.835674649075635
ltibia 87.23849853058152
lfoot 2.1417557741914925 -7.72317295080453
ltoes -10.380085483396249
rfemur -9.03814568001281 5.572994122401401 33.607694748002864
rtibia 39.60852461596364
rfoot -9.825772138173265 -6.315940964230385
rtoes 11.516922978897586
lowerback 13.061268536904654 0.7527147647365625 4.003286583446089
upperback -0.028568854182585923 1.7211555484246812 2.8105980304171325
thorax -7.481105167024839 0.7590142723897403 -0.04275910308710784
lowerneck -18.14159048761757 -3.648645790234134 -1.7359450658151256
upperneck 18.11818477585204 -4.891588695350891 1.777028666864312
head 8.732644432828357 -2.2404016123992188 0.2903911053116392
lclavicle -2.74974977067042e-15 3.4319078908925414e-16
lhumerus -42.830767577885624 -9.275697290786344 92.80422135772922
lradius 69.61601825776556
lwrist 19.191585410750545
lhand -25.14760616317445 14.097142673892197
lfingers 7.125019999999999
lthumb 1.3689476946128907 44.0671577661167
rclavicle -2.74974977067042e-15 3.4319078908925414e-16
rhumerus -39.4360478129462 -4.917561550109159 -88.55998304452939
rradius 63.53592998740106
rwrist -1.2176896396063517
rhand -16.402378665272288 30.306256892157062
rfingers 7.125019999999999
rthumb 9.81184249504121 0.5527240877905654
36
root -0.43009267781540395 18.424779132451363 9.427836522124139 -0.4475543731057572 -0.704130879067734 -6.135556290467575
lfemur -32.42262891550327 6.208541979815257 -13.875098869135009
ltibia 79.9711108425105
lfoot -2.3290646743284267 -4.50434507755472
ltoes -10.012876784212935
rfemur -5.1841024375869225 5.763659689917377 34.449985714283265
rtibia 37.3916479964701
rfoot -12.447006520209314 -6.61175168364912
rtoes 10.074179904439806
lowerback 12.97657920342848 1.2868435596733374 5.065974268729046
upperback -0.13653804121230184 2.5794665638742647 2.5573175815333995
thorax -7.467877607054334 1.1265502153248619 -1.1692525882029858
lowerneck -18.23074305459983 -3.766594160731638 -1.6630929505086316
upperneck 17.914239671294006 -5.099892136067139 1.7952407987457306
head 8.692279494804538 -2.318232422919263 0.2686925522579735
lclavicle -3.130431209966837e-15 7.611140847251188e-17
lhumerus -45.68831098765654 -8.648377601100822 92.74147635774371
lradius 68.90121278711923
lwrist 19.995409150720427
lhand -25.373114080300674 13.09525427984235
lfingers 7.125019999999999
lthumb 1.1511555437878522 43.06560255516181
rclavicle -3.130431209966837e-15 7.611140847251188e-17
rhumerus -36.87889358222608 -2.0144752109042634 -89.94911438149705
rradius 66.09243478941444
rwrist -3.0031291806213805
rhand -16.863200673547265 29.951589870554702
rfingers 7.125019999999999
rthumb 9.367135826714211 0.19805508190347165
37
root -0.39331517168628166 18.29832124337288 11.92531402530881 0.34982231634731753 -1.7059524920478188 -6.629506879616441
lfemur -35.18025100479199 5.013562966794513 -12.943970900900544
ltibia 67.7983004208575
lfoot -3.902036970703078 -0.6974561040250862
ltoes -8.329346011431822
rfemur -0.2743098293191899 5.881768010472181 35.54339740010506
rtibia 36.82371851822691
rfoot -13.269419099958228 -6.5649445166830915
rtoes 9.049762780465144
lowerback 12.869703813940097 1.9047336628854017 6.3764711116959765
upperback -0.2658377281925778 3.558348272274047 2.427487375241159
thorax -7.393092586735888 1.5500023480604004 -2.0992961206006484
lowerneck -18.48774672863863 -3.839267694242551 -1.5784483409244807
upperneck 17.619118923511127 -5.216062602685919 1.9025281317294118
head 8.647646790015399 -2.356907882719912 0.2775266938814972
lclavicle -2.1740907097016047e-15 7.460769831857866e-16
lhumerus -47.72975501756812 -7.362471462933861 92.73060919618818
lradius 68.70750408127297
lwrist 20.61891321829192
lhand -25.658228636540006 12.508931067215828
lfingers 7.125019999999999
lthumb 0.8757983519731865 42.48047419362495
rclavicle -2.1740907097016047e-15 7.460769831857866e-16
rhumerus -33.94296852600661 1.2134965895506777 -90.91502647030033
rradius 68.79692726277997
rwrist -4.737759355813514
rhand -17.319128568198447 30.25845698086531
rfingers 7.125019999999999
rthumb 8.927219764179192 0.6155373008452684
38
root -0.3647138866729487 18.117894527063857 13.657899878444159 1.2846626700609907 -2.5683041452145097 -7.303362281244892
lfemur -36.995974356607434 1.8365245998527615 -11.646778928850445
ltibia 50.45260918494361
lfoot -4.5263226165764605 2.6993097825487298
ltoes -7.946073184086951
rfemur 4.617169925048916 5.953898842057539 36.372401014131796
rtibia 33.12357380952111
rfoot -15.000551814818685 -6.857454170754227
rtoes 6.6122313142332
lowerback 12.499448375051834 2.371500961085242 7.447035467241237
upperback -0.41637069152886097 4.308958529757576 2.349989669800296
thorax -7.2598806968346326 1.8721059415239925 -3.004176189225162
lowerneck -18.958828934854385 -3.8716395902730305 -1.5209077303363405
upperneck 17.208417915588512 -5.256621279462731 1.9016934167668176
head 8.572775550714772 -2.369262691740524 0.25656751036200526
lclavicle -2.4251406291355624e-15 5.698728420992127e-16
lhumerus -50.02307095931204 -6.261646946413505 92.64097549965535
lradius 68.05470599482906
lwrist 20.502794904045803
lhand -25.976804586068027 11.848111255962362
lfingers 7.125019999999999
lthumb 0.5681286521325073 41.82096585448085
rclavicle -2.4251406291355624e-15 5.698728420992127e-16
rhumerus -31.193288378874776 3.726899146116053 -91.73394786683886
rradius 71.0654889191757
rwrist -6.258510196173344
rhand -17.753143458019956 30.904290081944524
rfingers 7.125019999999999
rthumb 8.508408755848885 1.338530174820085
39
root -0.313603341357489 17.91487190157873 15.387433112385084 2.3431355127028826 -3.4294572500182845 -7.661540616351754
lfemur -36.025880273579034 -2.1391054907284364 -10.022174117756505
ltibia 33.38824607179715
lfoot -3.8647007081167373 5.414327632477201
ltoes -7.726375638400738
rfemur 9.993205628254366 6.350053669258887 37.024599546771285
rtibia 30.01907013441526
rfoot -16.58671560176657 -7.025377296116643
rtoes 2.833980009987101
lowerback 11.948781048650778 2.7927430992938906 8.171647441235628
upperback -0.551988070820567 4.941596709733867 2.345725638443538
thorax -7.05994066232141 2.151520720545849 -3.4307347825218795
lowerneck -19.393856105793887 -3.852268900417873 -1.4192243826581028
upperneck 16.928597306310852 -5.244324481273877 1.9688936014864804
head 8.536450538326049 -2.352170676803521 0.2525501641032709
lclavicle -1.9457158872850795e-15 9.06118005268568e-16
lhumerus -51.58303272131747 -4.999259878645857 92.51392602352101
lradius 66.8739233075887
lwrist 20.096049106782424
lhand -26.11397168150277 12.179926512764187
lfingers 7.125019999999999
lthumb 0.43566627536479 42.152330054070156
rclavicle -1.9457158872850795e-15 9.06118005268568e-16
rhumerus -28.792711117047467 5.074148743612107 -91.94092764826277
rradius 72.72619265176468
rwrist -6.8057453576303555
rhand -18.121092401123423 31.945429345281394
rfingers 7.125019999999999
rthumb 8.153329626322847 2.339631525498642
